<svg width="850" height="383" viewBox="0 0 850 383" fill="none" xmlns="http://www.w3.org/2000/svg">
<path d="M457.045 119.325H463.977V165.12H464.545L496.364 119.325H503.182V177.506H496.136V131.825H495.568L463.864 177.506H457.045V119.325ZM541.834 168.415L557.062 133.87H563.425L544.562 177.506H539.107L520.584 133.87H526.834L541.834 168.415ZM524.675 133.87V177.506H517.971V133.87H524.675ZM558.993 177.506V133.87H565.698V177.506H558.993ZM579.571 177.506V133.87H613.889V177.506H607.184V140.12H586.275V177.506H579.571ZM646.029 178.415C641.824 178.415 638.197 177.487 635.148 175.631C632.118 173.756 629.779 171.143 628.131 167.79C626.502 164.419 625.688 160.499 625.688 156.029C625.688 151.559 626.502 147.62 628.131 144.211C629.779 140.783 632.07 138.112 635.006 136.2C637.961 134.268 641.407 133.302 645.347 133.302C647.62 133.302 649.864 133.681 652.08 134.438C654.296 135.196 656.313 136.427 658.131 138.131C659.949 139.817 661.398 142.052 662.478 144.836C663.557 147.62 664.097 151.048 664.097 155.12V157.961H630.461V152.165H657.279C657.279 149.703 656.786 147.506 655.801 145.575C654.836 143.643 653.453 142.118 651.654 141.001C649.873 139.883 647.771 139.325 645.347 139.325C642.676 139.325 640.366 139.987 638.415 141.313C636.483 142.62 634.996 144.325 633.955 146.427C632.913 148.529 632.392 150.783 632.392 153.188V157.052C632.392 160.347 632.961 163.141 634.097 165.433C635.252 167.705 636.853 169.438 638.898 170.631C640.943 171.806 643.32 172.393 646.029 172.393C647.79 172.393 649.381 172.147 650.801 171.654C652.241 171.143 653.481 170.385 654.523 169.381C655.565 168.359 656.37 167.09 656.938 165.575L663.415 167.393C662.733 169.59 661.587 171.522 659.978 173.188C658.368 174.836 656.379 176.124 654.012 177.052C651.644 177.961 648.983 178.415 646.029 178.415ZM675.896 193.87V133.87H682.373V140.802H683.168C683.661 140.044 684.343 139.078 685.214 137.904C686.104 136.711 687.373 135.65 689.021 134.722C690.687 133.775 692.941 133.302 695.782 133.302C699.456 133.302 702.695 134.22 705.498 136.058C708.301 137.895 710.489 140.499 712.061 143.87C713.632 147.241 714.418 151.219 714.418 155.802C714.418 160.423 713.632 164.429 712.061 167.819C710.489 171.19 708.311 173.804 705.526 175.66C702.742 177.497 699.532 178.415 695.896 178.415C693.093 178.415 690.848 177.951 689.163 177.023C687.477 176.076 686.18 175.006 685.271 173.813C684.362 172.601 683.661 171.597 683.168 170.802H682.6V193.87H675.896ZM682.487 155.688C682.487 158.984 682.97 161.891 683.936 164.41C684.901 166.91 686.312 168.87 688.168 170.29C690.025 171.692 692.297 172.393 694.987 172.393C697.79 172.393 700.129 171.654 702.004 170.177C703.898 168.681 705.318 166.673 706.265 164.154C707.231 161.616 707.714 158.794 707.714 155.688C707.714 152.62 707.24 149.855 706.293 147.393C705.365 144.912 703.954 142.951 702.061 141.512C700.186 140.054 697.828 139.325 694.987 139.325C692.259 139.325 689.968 140.016 688.112 141.398C686.256 142.762 684.854 144.675 683.907 147.137C682.96 149.58 682.487 152.431 682.487 155.688ZM732.95 167.62L753.973 133.87H761.7V177.506H754.996V143.756L734.087 177.506H726.246V133.87H732.95V167.62ZM801.83 177.506V140.006H790.239C787.626 140.006 785.571 140.612 784.074 141.825C782.578 143.037 781.83 144.703 781.83 146.825C781.83 148.908 782.502 150.546 783.847 151.739C785.211 152.933 787.076 153.529 789.444 153.529H803.535V159.779H789.444C786.489 159.779 783.942 159.258 781.802 158.217C779.662 157.175 778.014 155.688 776.859 153.756C775.703 151.806 775.126 149.495 775.126 146.825C775.126 144.135 775.732 141.825 776.944 139.893C778.156 137.961 779.889 136.474 782.143 135.433C784.415 134.391 787.114 133.87 790.239 133.87H808.194V177.506H801.83ZM772.739 177.506L785.126 155.802H792.398L780.012 177.506H772.739ZM500.568 199.325V257.506H493.523V205.575H464.205V257.506H457.159V199.325H500.568ZM515.471 273.87V213.87H521.948V220.802H522.743C523.236 220.044 523.918 219.078 524.789 217.904C525.679 216.711 526.948 215.65 528.596 214.722C530.262 213.775 532.516 213.302 535.357 213.302C539.031 213.302 542.27 214.22 545.073 216.058C547.876 217.895 550.064 220.499 551.636 223.87C553.207 227.241 553.993 231.219 553.993 235.802C553.993 240.423 553.207 244.429 551.636 247.819C550.064 251.19 547.886 253.804 545.101 255.66C542.317 257.497 539.107 258.415 535.471 258.415C532.668 258.415 530.423 257.951 528.738 257.023C527.052 256.076 525.755 255.006 524.846 253.813C523.937 252.601 523.236 251.597 522.743 250.802H522.175V273.87H515.471ZM522.062 235.688C522.062 238.984 522.545 241.891 523.511 244.41C524.476 246.91 525.887 248.87 527.743 250.29C529.6 251.692 531.872 252.393 534.562 252.393C537.365 252.393 539.704 251.654 541.579 250.177C543.473 248.681 544.893 246.673 545.84 244.154C546.806 241.616 547.289 238.794 547.289 235.688C547.289 232.62 546.815 229.855 545.868 227.393C544.94 224.912 543.529 222.951 541.636 221.512C539.761 220.054 537.403 219.325 534.562 219.325C531.834 219.325 529.543 220.016 527.687 221.398C525.831 222.762 524.429 224.675 523.482 227.137C522.535 229.58 522.062 232.431 522.062 235.688ZM578.662 258.529C575.896 258.529 573.387 258.008 571.133 256.967C568.879 255.906 567.09 254.381 565.764 252.393C564.438 250.385 563.775 247.961 563.775 245.12C563.775 242.62 564.268 240.594 565.253 239.04C566.237 237.469 567.554 236.237 569.201 235.347C570.849 234.457 572.667 233.794 574.656 233.359C576.664 232.904 578.681 232.544 580.707 232.279C583.359 231.938 585.508 231.683 587.156 231.512C588.823 231.323 590.035 231.01 590.792 230.575C591.569 230.139 591.957 229.381 591.957 228.302V228.075C591.957 225.272 591.19 223.094 589.656 221.54C588.141 219.987 585.84 219.211 582.753 219.211C579.552 219.211 577.042 219.912 575.224 221.313C573.406 222.715 572.128 224.211 571.389 225.802L565.025 223.529C566.162 220.878 567.677 218.813 569.571 217.336C571.484 215.84 573.567 214.798 575.821 214.211C578.093 213.605 580.328 213.302 582.525 213.302C583.927 213.302 585.537 213.472 587.355 213.813C589.192 214.135 590.963 214.808 592.667 215.83C594.391 216.853 595.821 218.397 596.957 220.461C598.093 222.525 598.662 225.29 598.662 228.756V257.506H591.957V251.597H591.616C591.162 252.544 590.404 253.558 589.343 254.637C588.283 255.717 586.872 256.635 585.111 257.393C583.349 258.15 581.2 258.529 578.662 258.529ZM579.684 252.506C582.336 252.506 584.571 251.986 586.389 250.944C588.226 249.902 589.609 248.558 590.537 246.91C591.484 245.262 591.957 243.529 591.957 241.711V235.575C591.673 235.915 591.048 236.228 590.082 236.512C589.135 236.777 588.037 237.014 586.787 237.222C585.556 237.412 584.353 237.582 583.179 237.734C582.023 237.866 581.086 237.98 580.366 238.075C578.624 238.302 576.995 238.671 575.48 239.183C573.984 239.675 572.771 240.423 571.843 241.427C570.934 242.412 570.48 243.756 570.48 245.461C570.48 247.79 571.342 249.552 573.065 250.745C574.807 251.919 577.014 252.506 579.684 252.506ZM612.499 257.506V213.87H630.34C635.037 213.87 638.768 214.931 641.533 217.052C644.298 219.173 645.681 221.976 645.681 225.461C645.681 228.112 644.895 230.167 643.323 231.626C641.751 233.065 639.734 234.04 637.272 234.552C638.881 234.779 640.444 235.347 641.959 236.256C643.493 237.165 644.762 238.415 645.766 240.006C646.77 241.578 647.272 243.51 647.272 245.802C647.272 248.037 646.703 250.035 645.567 251.796C644.431 253.558 642.802 254.95 640.681 255.972C638.559 256.995 636.022 257.506 633.067 257.506H612.499ZM618.863 251.37H633.067C635.378 251.37 637.186 250.821 638.493 249.722C639.8 248.624 640.453 247.128 640.453 245.234C640.453 242.98 639.8 241.209 638.493 239.921C637.186 238.614 635.378 237.961 633.067 237.961H618.863V251.37ZM618.863 232.165H630.34C632.139 232.165 633.683 231.919 634.97 231.427C636.258 230.915 637.243 230.196 637.925 229.268C638.626 228.321 638.976 227.203 638.976 225.915C638.976 224.078 638.209 222.639 636.675 221.597C635.141 220.537 633.029 220.006 630.34 220.006H618.863V232.165ZM665.725 247.62L686.748 213.87H694.475V257.506H687.771V223.756L666.862 257.506H659.021V213.87H665.725V247.62ZM704.491 257.506V251.256H706.082C707.389 251.256 708.478 251.001 709.349 250.489C710.221 249.959 710.921 249.04 711.452 247.734C712.001 246.408 712.418 244.571 712.702 242.222C713.005 239.855 713.223 236.844 713.355 233.188L714.151 213.87H743.241V257.506H736.537V220.12H720.514L719.832 235.688C719.681 239.268 719.359 242.421 718.866 245.148C718.393 247.857 717.664 250.13 716.679 251.967C715.713 253.804 714.425 255.186 712.815 256.114C711.205 257.042 709.188 257.506 706.764 257.506H704.491Z" fill="#E1E1E1"/>
<path d="M309.542 151.604H304.328L283.964 101.814C280.327 92.9614 274.072 85.3753 266.002 80.0295C257.932 74.6838 248.415 71.8223 238.673 71.8125H140.923C129.605 71.7808 118.626 75.5977 109.862 82.6117C101.097 89.6258 95.0883 99.4021 92.8625 110.272L84.3908 151.604H81.4583C68.4959 151.604 56.0643 156.648 46.8985 165.626C37.7327 174.605 32.5833 186.782 32.5833 199.479V247.354C32.5833 251.587 34.2998 255.646 37.3551 258.638C40.4103 261.631 44.5542 263.313 48.875 263.313H65.1667C65.1667 276.01 70.316 288.187 79.4818 297.165C88.6477 306.144 101.079 311.188 114.042 311.188C127.004 311.188 139.436 306.144 148.602 297.165C157.767 288.187 162.917 276.01 162.917 263.313H228.083C228.083 276.01 233.233 288.187 242.399 297.165C251.564 306.144 263.996 311.188 276.958 311.188C289.921 311.188 302.352 306.144 311.518 297.165C320.684 288.187 325.833 276.01 325.833 263.313H342.125C346.446 263.313 350.59 261.631 353.645 258.638C356.7 255.646 358.417 251.587 358.417 247.354V199.479C358.417 186.782 353.267 174.605 344.102 165.626C334.936 156.648 322.504 151.604 309.542 151.604V151.604ZM211.792 103.729H238.673C241.908 103.758 245.061 104.729 247.73 106.52C250.4 108.31 252.464 110.839 253.661 113.783L269.138 151.604H211.792V103.729ZM124.794 116.496C125.556 112.837 127.603 109.556 130.58 107.223C133.557 104.89 137.274 103.654 141.086 103.729H179.208V151.604H117.626L124.794 116.496ZM114.042 279.271C110.819 279.271 107.67 278.335 104.991 276.581C102.311 274.828 100.223 272.335 98.9901 269.419C97.7571 266.503 97.4344 263.295 98.0631 260.199C98.6917 257.104 100.243 254.26 102.522 252.028C104.8 249.796 107.703 248.277 110.863 247.661C114.024 247.045 117.299 247.361 120.276 248.569C123.253 249.777 125.798 251.822 127.588 254.447C129.378 257.071 130.333 260.156 130.333 263.313C130.333 267.545 128.617 271.604 125.562 274.597C122.506 277.59 118.363 279.271 114.042 279.271ZM276.958 279.271C273.736 279.271 270.586 278.335 267.907 276.581C265.228 274.828 263.14 272.335 261.907 269.419C260.674 266.503 260.351 263.295 260.98 260.199C261.608 257.104 263.16 254.26 265.438 252.028C267.717 249.796 270.62 248.277 273.78 247.661C276.94 247.045 280.216 247.361 283.193 248.569C286.17 249.777 288.714 251.822 290.504 254.447C292.295 257.071 293.25 260.156 293.25 263.313C293.25 267.545 291.534 271.604 288.478 274.597C285.423 277.59 281.279 279.271 276.958 279.271ZM325.833 231.396H313.126C308.545 226.459 302.961 222.515 296.733 219.815C290.505 217.116 283.769 215.722 276.958 215.722C270.148 215.722 263.412 217.116 257.184 219.815C250.955 222.515 245.372 226.459 240.791 231.396H150.209C145.628 226.459 140.045 222.515 133.816 219.815C127.588 217.116 120.852 215.722 114.042 215.722C107.231 215.722 100.495 217.116 94.2671 219.815C88.0388 222.515 82.4551 226.459 77.8742 231.396H65.1667V199.479C65.1667 195.247 66.8831 191.188 69.9384 188.195C72.9937 185.202 77.1375 183.521 81.4583 183.521H309.542C313.863 183.521 318.006 185.202 321.062 188.195C324.117 191.188 325.833 195.247 325.833 199.479V231.396Z" fill="#E1E1E1"/>
<path d="M391 42.61C389.64 42.61 388.311 43.0408 387.18 43.8481C386.05 44.6553 385.169 45.8027 384.648 47.1451C384.128 48.4875 383.992 49.9647 384.257 51.3897C384.522 52.8148 385.177 54.1239 386.139 55.1513C387.1 56.1787 388.325 56.8784 389.659 57.1619C390.992 57.4454 392.375 57.2999 393.631 56.7438C394.887 56.1878 395.961 55.2462 396.716 54.038C397.472 52.8299 397.875 51.4095 397.875 49.9565C397.875 48.0081 397.151 46.1395 395.861 44.7617C394.572 43.384 392.823 42.61 391 42.61V42.61ZM436.833 57.3031H434.358C438.888 51.9242 441.401 44.9484 441.417 37.7123C441.417 36.4133 440.934 35.1676 440.074 34.2491C439.215 33.3306 438.049 32.8146 436.833 32.8146H417.675C416.729 29.9565 414.98 27.481 412.666 25.7273C410.352 23.9736 407.587 23.0277 404.75 23.0192H377.25C374.413 23.0277 371.648 23.9736 369.334 25.7273C367.02 27.481 365.271 29.9565 364.325 32.8146H345.167C343.951 32.8146 342.785 33.3306 341.926 34.2491C341.066 35.1676 340.583 36.4133 340.583 37.7123C340.599 44.9484 343.112 51.9242 347.642 57.3031H345.167C343.951 57.3031 342.785 57.8191 341.926 58.7376C341.066 59.6561 340.583 60.9018 340.583 62.2007C340.599 69.4369 343.112 76.4127 347.642 81.7915H345.167C343.951 81.7915 342.785 82.3075 341.926 83.226C341.066 84.1445 340.583 85.3903 340.583 86.6892C340.595 93.761 342.993 100.591 347.338 105.926C351.682 111.261 357.681 114.743 364.233 115.733C365.13 118.67 366.87 121.232 369.207 123.052C371.544 124.872 374.358 125.858 377.25 125.871H404.75C407.642 125.858 410.456 124.872 412.793 123.052C415.13 121.232 416.87 118.67 417.767 115.733C424.319 114.743 430.318 111.261 434.662 105.926C439.006 100.591 441.405 93.761 441.417 86.6892C441.417 85.3903 440.934 84.1445 440.074 83.226C439.215 82.3075 438.049 81.7915 436.833 81.7915H434.358C438.888 76.4127 441.401 69.4369 441.417 62.2007C441.417 60.9018 440.934 59.6561 440.074 58.7376C439.215 57.8191 438.049 57.3031 436.833 57.3031ZM363.5 105.643C360.333 104.767 357.444 103.002 355.131 100.53C352.818 98.0588 351.166 94.9708 350.346 91.5869H363.5V105.643ZM363.5 81.1548C360.333 80.2789 357.444 78.5136 355.131 76.0419C352.818 73.5703 351.166 70.4824 350.346 67.0984H363.5V81.1548ZM363.5 56.6663C360.355 55.8357 357.465 54.1482 355.112 51.7687C352.886 49.2544 351.307 46.1665 350.529 42.8059H363.5V56.6663ZM409.333 111.178C409.333 112.477 408.85 113.722 407.991 114.641C407.131 115.559 405.966 116.075 404.75 116.075H377.25C376.034 116.075 374.869 115.559 374.009 114.641C373.15 113.722 372.667 112.477 372.667 111.178V37.7123C372.667 36.4133 373.15 35.1676 374.009 34.2491C374.869 33.3306 376.034 32.8146 377.25 32.8146H404.75C405.966 32.8146 407.131 33.3306 407.991 34.2491C408.85 35.1676 409.333 36.4133 409.333 37.7123V111.178ZM426.887 100.55C424.535 102.929 421.645 104.617 418.5 105.447V91.5869H431.654C430.824 94.9677 429.181 98.0577 426.887 100.55ZM426.887 76.0612C424.535 78.4408 421.645 80.1282 418.5 80.9589V67.0984H431.654C430.824 70.4793 429.181 73.5692 426.887 76.0612V76.0612ZM426.887 51.5727C424.535 53.9523 421.645 55.6398 418.5 56.4704V42.61H431.654C430.824 45.9908 429.181 49.0807 426.887 51.5727V51.5727ZM391 91.5869C389.64 91.5869 388.311 92.0178 387.18 92.8251C386.05 93.6323 385.169 94.7797 384.648 96.1221C384.128 97.4645 383.992 98.9416 384.257 100.367C384.522 101.792 385.177 103.101 386.139 104.128C387.1 105.156 388.325 105.855 389.659 106.139C390.992 106.422 392.375 106.277 393.631 105.721C394.887 105.165 395.961 104.223 396.716 103.015C397.472 101.807 397.875 100.386 397.875 98.9335C397.875 96.9851 397.151 95.1164 395.861 93.7387C394.572 92.3609 392.823 91.5869 391 91.5869ZM391 67.0984C389.64 67.0984 388.311 67.5293 387.18 68.3366C386.05 69.1438 385.169 70.2912 384.648 71.6336C384.128 72.976 383.992 74.4531 384.257 75.8782C384.522 77.3033 385.177 78.6124 386.139 79.6398C387.1 80.6672 388.325 81.3669 389.659 81.6504C390.992 81.9338 392.375 81.7884 393.631 81.2323C394.887 80.6763 395.961 79.7346 396.716 78.5265C397.472 77.3184 397.875 75.898 397.875 74.445C397.875 72.4966 397.151 70.6279 395.861 69.2502C394.572 67.8725 392.823 67.0984 391 67.0984Z" fill="#E1E1E1"/>
<rect x="388" y="124.402" width="6" height="187.092" rx="2" fill="#E1E1E1"/>
<rect x="29" y="312.473" width="421" height="4.8977" rx="2.44885" fill="#E1E1E1"/>
</svg>
