<svg width="1365" height="2243" viewBox="0 0 1365 2243" fill="none" xmlns="http://www.w3.org/2000/svg">
<path fill-rule="evenodd" clip-rule="evenodd" d="M1137.77 2243L1075 2149C991 2070 855.627 1944 686.843 1794C518.059 1645 346.755 1495 374.466 1346C404.696 1196 628.902 1047 800.206 897C968.99 748 1082.35 598 1137.77 449C1195.72 299 1176 150 1176 75L1157 0H1364.5V75C1364.5 150 1364.5 299 1364.5 449C1364.5 598 1364.5 748 1364.5 897C1364.5 1047 1364.5 1196 1364.5 1346C1364.5 1495 1364.5 1645 1364.5 1794C1364.5 1944 1364.5 2093 1364.5 2168V2243H1137.77Z" fill="url(#paint0_linear_16_4)" style="mix-blend-mode:darken"/>
<path fill-rule="evenodd" clip-rule="evenodd" d="M136.536 1237.28C170.466 1239.52 198.177 1260.18 221.085 1283.46C242.709 1305.44 258.892 1332.02 258.999 1361.76C259.107 1391.58 243.486 1418.65 221.653 1440.57C198.734 1463.59 170.276 1482.71 136.536 1484.75C100.774 1486.92 65.1923 1474.75 39.5041 1451.61C13.4826 1428.17 0.0994737 1395.37 0.000557819 1361.76C-0.0986351 1328.05 13.0318 1295.06 38.9738 1271.41C64.7271 1247.93 100.488 1234.89 136.536 1237.28Z" fill="#7BB8D4"/>
<defs>
<linearGradient id="paint0_linear_16_4" x1="1364.5" y1="1363.5" x2="371.5" y2="1390.5" gradientUnits="userSpaceOnUse">
<stop stop-color="#17B4A4" stop-opacity="0.81"/>
<stop offset="0.854167" stop-color="#7BB8D4"/>
</linearGradient>
</defs>
</svg>
