<svg width="850" height="391" viewBox="0 0 850 391" fill="none" xmlns="http://www.w3.org/2000/svg">
<path d="M457.045 122.818H463.977V168.614H464.545L496.364 122.818H503.182V181H496.136V135.318H495.568L463.864 181H457.045V122.818ZM541.834 171.909L557.062 137.364H563.425L544.562 181H539.107L520.584 137.364H526.834L541.834 171.909ZM524.675 137.364V181H517.971V137.364H524.675ZM558.993 181V137.364H565.698V181H558.993ZM579.571 181V137.364H613.889V181H607.184V143.614H586.275V181H579.571ZM646.029 181.909C641.824 181.909 638.197 180.981 635.148 179.125C632.118 177.25 629.779 174.636 628.131 171.284C626.502 167.913 625.688 163.992 625.688 159.523C625.688 155.053 626.502 151.114 628.131 147.705C629.779 144.277 632.07 141.606 635.006 139.693C637.961 137.761 641.407 136.795 645.347 136.795C647.62 136.795 649.864 137.174 652.08 137.932C654.296 138.689 656.313 139.92 658.131 141.625C659.949 143.311 661.398 145.545 662.478 148.33C663.557 151.114 664.097 154.542 664.097 158.614V161.455H630.461V155.659H657.279C657.279 153.197 656.786 151 655.801 149.068C654.836 147.136 653.453 145.612 651.654 144.494C649.873 143.377 647.771 142.818 645.347 142.818C642.676 142.818 640.366 143.481 638.415 144.807C636.483 146.114 634.996 147.818 633.955 149.92C632.913 152.023 632.392 154.277 632.392 156.682V160.545C632.392 163.841 632.961 166.634 634.097 168.926C635.252 171.199 636.853 172.932 638.898 174.125C640.943 175.299 643.32 175.886 646.029 175.886C647.79 175.886 649.381 175.64 650.801 175.148C652.241 174.636 653.481 173.879 654.523 172.875C655.565 171.852 656.37 170.583 656.938 169.068L663.415 170.886C662.733 173.083 661.587 175.015 659.978 176.682C658.368 178.33 656.379 179.617 654.012 180.545C651.644 181.455 648.983 181.909 646.029 181.909ZM675.896 197.364V137.364H682.373V144.295H683.168C683.661 143.538 684.343 142.572 685.214 141.398C686.104 140.205 687.373 139.144 689.021 138.216C690.687 137.269 692.941 136.795 695.782 136.795C699.456 136.795 702.695 137.714 705.498 139.551C708.301 141.388 710.489 143.992 712.061 147.364C713.632 150.735 714.418 154.712 714.418 159.295C714.418 163.917 713.632 167.922 712.061 171.312C710.489 174.684 708.311 177.297 705.526 179.153C702.742 180.991 699.532 181.909 695.896 181.909C693.093 181.909 690.848 181.445 689.163 180.517C687.477 179.57 686.18 178.5 685.271 177.307C684.362 176.095 683.661 175.091 683.168 174.295H682.6V197.364H675.896ZM682.487 159.182C682.487 162.477 682.97 165.384 683.936 167.903C684.901 170.403 686.312 172.364 688.168 173.784C690.025 175.186 692.297 175.886 694.987 175.886C697.79 175.886 700.129 175.148 702.004 173.67C703.898 172.174 705.318 170.167 706.265 167.648C707.231 165.11 707.714 162.288 707.714 159.182C707.714 156.114 707.24 153.348 706.293 150.886C705.365 148.405 703.954 146.445 702.061 145.006C700.186 143.547 697.828 142.818 694.987 142.818C692.259 142.818 689.968 143.509 688.112 144.892C686.256 146.256 684.854 148.169 683.907 150.631C682.96 153.074 682.487 155.924 682.487 159.182ZM732.95 171.114L753.973 137.364H761.7V181H754.996V147.25L734.087 181H726.246V137.364H732.95V171.114ZM801.83 181V143.5H790.239C787.626 143.5 785.571 144.106 784.074 145.318C782.578 146.53 781.83 148.197 781.83 150.318C781.83 152.402 782.502 154.04 783.847 155.233C785.211 156.426 787.076 157.023 789.444 157.023H803.535V163.273H789.444C786.489 163.273 783.942 162.752 781.802 161.71C779.662 160.669 778.014 159.182 776.859 157.25C775.703 155.299 775.126 152.989 775.126 150.318C775.126 147.629 775.732 145.318 776.944 143.386C778.156 141.455 779.889 139.968 782.143 138.926C784.415 137.884 787.114 137.364 790.239 137.364H808.194V181H801.83ZM772.739 181L785.126 159.295H792.398L780.012 181H772.739ZM500.568 202.818V261H493.523V209.068H464.205V261H457.159V202.818H500.568ZM515.471 277.364V217.364H521.948V224.295H522.743C523.236 223.538 523.918 222.572 524.789 221.398C525.679 220.205 526.948 219.144 528.596 218.216C530.262 217.269 532.516 216.795 535.357 216.795C539.031 216.795 542.27 217.714 545.073 219.551C547.876 221.388 550.064 223.992 551.636 227.364C553.207 230.735 553.993 234.712 553.993 239.295C553.993 243.917 553.207 247.922 551.636 251.312C550.064 254.684 547.886 257.297 545.101 259.153C542.317 260.991 539.107 261.909 535.471 261.909C532.668 261.909 530.423 261.445 528.738 260.517C527.052 259.57 525.755 258.5 524.846 257.307C523.937 256.095 523.236 255.091 522.743 254.295H522.175V277.364H515.471ZM522.062 239.182C522.062 242.477 522.545 245.384 523.511 247.903C524.476 250.403 525.887 252.364 527.743 253.784C529.6 255.186 531.872 255.886 534.562 255.886C537.365 255.886 539.704 255.148 541.579 253.67C543.473 252.174 544.893 250.167 545.84 247.648C546.806 245.11 547.289 242.288 547.289 239.182C547.289 236.114 546.815 233.348 545.868 230.886C544.94 228.405 543.529 226.445 541.636 225.006C539.761 223.547 537.403 222.818 534.562 222.818C531.834 222.818 529.543 223.509 527.687 224.892C525.831 226.256 524.429 228.169 523.482 230.631C522.535 233.074 522.062 235.924 522.062 239.182ZM578.662 262.023C575.896 262.023 573.387 261.502 571.133 260.46C568.879 259.4 567.09 257.875 565.764 255.886C564.438 253.879 563.775 251.455 563.775 248.614C563.775 246.114 564.268 244.087 565.253 242.534C566.237 240.962 567.554 239.731 569.201 238.841C570.849 237.951 572.667 237.288 574.656 236.852C576.664 236.398 578.681 236.038 580.707 235.773C583.359 235.432 585.508 235.176 587.156 235.006C588.823 234.816 590.035 234.504 590.792 234.068C591.569 233.633 591.957 232.875 591.957 231.795V231.568C591.957 228.765 591.19 226.587 589.656 225.034C588.141 223.481 585.84 222.705 582.753 222.705C579.552 222.705 577.042 223.405 575.224 224.807C573.406 226.208 572.128 227.705 571.389 229.295L565.025 227.023C566.162 224.371 567.677 222.307 569.571 220.83C571.484 219.333 573.567 218.292 575.821 217.705C578.093 217.098 580.328 216.795 582.525 216.795C583.927 216.795 585.537 216.966 587.355 217.307C589.192 217.629 590.963 218.301 592.667 219.324C594.391 220.347 595.821 221.89 596.957 223.955C598.093 226.019 598.662 228.784 598.662 232.25V261H591.957V255.091H591.616C591.162 256.038 590.404 257.051 589.343 258.131C588.283 259.21 586.872 260.129 585.111 260.886C583.349 261.644 581.2 262.023 578.662 262.023ZM579.684 256C582.336 256 584.571 255.479 586.389 254.438C588.226 253.396 589.609 252.051 590.537 250.403C591.484 248.756 591.957 247.023 591.957 245.205V239.068C591.673 239.409 591.048 239.722 590.082 240.006C589.135 240.271 588.037 240.508 586.787 240.716C585.556 240.905 584.353 241.076 583.179 241.227C582.023 241.36 581.086 241.473 580.366 241.568C578.624 241.795 576.995 242.165 575.48 242.676C573.984 243.169 572.771 243.917 571.843 244.92C570.934 245.905 570.48 247.25 570.48 248.955C570.48 251.284 571.342 253.045 573.065 254.239C574.807 255.413 577.014 256 579.684 256ZM612.499 261V217.364H630.34C635.037 217.364 638.768 218.424 641.533 220.545C644.298 222.667 645.681 225.47 645.681 228.955C645.681 231.606 644.895 233.661 643.323 235.119C641.751 236.559 639.734 237.534 637.272 238.045C638.881 238.273 640.444 238.841 641.959 239.75C643.493 240.659 644.762 241.909 645.766 243.5C646.77 245.072 647.272 247.004 647.272 249.295C647.272 251.53 646.703 253.528 645.567 255.29C644.431 257.051 642.802 258.443 640.681 259.466C638.559 260.489 636.022 261 633.067 261H612.499ZM618.863 254.864H633.067C635.378 254.864 637.186 254.314 638.493 253.216C639.8 252.117 640.453 250.621 640.453 248.727C640.453 246.473 639.8 244.703 638.493 243.415C637.186 242.108 635.378 241.455 633.067 241.455H618.863V254.864ZM618.863 235.659H630.34C632.139 235.659 633.683 235.413 634.97 234.92C636.258 234.409 637.243 233.689 637.925 232.761C638.626 231.814 638.976 230.697 638.976 229.409C638.976 227.572 638.209 226.133 636.675 225.091C635.141 224.03 633.029 223.5 630.34 223.5H618.863V235.659ZM665.725 251.114L686.748 217.364H694.475V261H687.771V227.25L666.862 261H659.021V217.364H665.725V251.114ZM704.491 261V254.75H706.082C707.389 254.75 708.478 254.494 709.349 253.983C710.221 253.453 710.921 252.534 711.452 251.227C712.001 249.902 712.418 248.064 712.702 245.716C713.005 243.348 713.223 240.337 713.355 236.682L714.151 217.364H743.241V261H736.537V223.614H720.514L719.832 239.182C719.681 242.761 719.359 245.915 718.866 248.642C718.393 251.35 717.664 253.623 716.679 255.46C715.713 257.297 714.425 258.68 712.815 259.608C711.205 260.536 709.188 261 706.764 261H704.491Z" fill="#52ACA1"/>
<path d="M309.542 154.771H304.328L283.964 103.941C280.327 94.9032 274.072 87.1586 266.002 81.7012C257.932 76.2438 248.415 73.3226 238.673 73.3125H140.923C129.605 73.2801 118.626 77.1768 109.862 84.3373C101.097 91.4978 95.0883 101.478 92.8625 112.575L84.3908 154.771H81.4583C68.4959 154.771 56.0643 159.92 46.8985 169.086C37.7327 178.252 32.5833 190.683 32.5833 203.646V252.521C32.5833 256.842 34.2998 260.986 37.3551 264.041C40.4103 267.096 44.5542 268.813 48.875 268.813H65.1667C65.1667 281.775 70.316 294.207 79.4818 303.372C88.6477 312.538 101.079 317.688 114.042 317.688C127.004 317.688 139.436 312.538 148.602 303.372C157.767 294.207 162.917 281.775 162.917 268.813H228.083C228.083 281.775 233.233 294.207 242.399 303.372C251.564 312.538 263.996 317.688 276.958 317.688C289.921 317.688 302.352 312.538 311.518 303.372C320.684 294.207 325.833 281.775 325.833 268.813H342.125C346.446 268.813 350.59 267.096 353.645 264.041C356.7 260.986 358.417 256.842 358.417 252.521V203.646C358.417 190.683 353.267 178.252 344.102 169.086C334.936 159.92 322.504 154.771 309.542 154.771ZM211.792 105.896H238.673C241.908 105.925 245.061 106.917 247.73 108.745C250.4 110.573 252.464 113.154 253.661 116.16L269.138 154.771H211.792V105.896ZM124.794 118.929C125.556 115.194 127.603 111.844 130.58 109.463C133.557 107.081 137.274 105.819 141.086 105.896H179.208V154.771H117.626L124.794 118.929ZM114.042 285.104C110.819 285.104 107.67 284.149 104.991 282.359C102.311 280.568 100.223 278.024 98.9901 275.047C97.7571 272.07 97.4344 268.794 98.0631 265.634C98.6917 262.474 100.243 259.571 102.522 257.293C104.8 255.014 107.703 253.463 110.863 252.834C114.024 252.205 117.299 252.528 120.276 253.761C123.253 254.994 125.798 257.082 127.588 259.761C129.378 262.441 130.333 265.59 130.333 268.813C130.333 273.133 128.617 277.277 125.562 280.332C122.506 283.388 118.363 285.104 114.042 285.104ZM276.958 285.104C273.736 285.104 270.586 284.149 267.907 282.359C265.228 280.568 263.14 278.024 261.907 275.047C260.674 272.07 260.351 268.794 260.98 265.634C261.608 262.474 263.16 259.571 265.438 257.293C267.717 255.014 270.62 253.463 273.78 252.834C276.94 252.205 280.216 252.528 283.193 253.761C286.17 254.994 288.714 257.082 290.504 259.761C292.295 262.441 293.25 265.59 293.25 268.813C293.25 273.133 291.534 277.277 288.478 280.332C285.423 283.388 281.279 285.104 276.958 285.104ZM325.833 236.229H313.126C308.545 231.189 302.961 227.162 296.733 224.407C290.505 221.651 283.769 220.228 276.958 220.228C270.148 220.228 263.412 221.651 257.184 224.407C250.955 227.162 245.372 231.189 240.791 236.229H150.209C145.628 231.189 140.045 227.162 133.816 224.407C127.588 221.651 120.852 220.228 114.042 220.228C107.231 220.228 100.495 221.651 94.2671 224.407C88.0388 227.162 82.4551 231.189 77.8742 236.229H65.1667V203.646C65.1667 199.325 66.8831 195.181 69.9384 192.126C72.9937 189.071 77.1375 187.354 81.4583 187.354H309.542C313.863 187.354 318.006 189.071 321.062 192.126C324.117 195.181 325.833 199.325 325.833 203.646V236.229Z" fill="#58C2B5"/>
<path d="M391 43.5C389.64 43.5 388.311 43.9399 387.18 44.764C386.05 45.5881 385.169 46.7594 384.648 48.1299C384.128 49.5003 383.992 51.0083 384.257 52.4632C384.522 53.918 385.177 55.2544 386.139 56.3033C387.1 57.3522 388.325 58.0665 389.659 58.3559C390.992 58.6453 392.375 58.4968 393.631 57.9291C394.887 57.3614 395.961 56.4001 396.716 55.1668C397.472 53.9334 397.875 52.4834 397.875 51C397.875 49.0109 397.151 47.1032 395.861 45.6967C394.572 44.2902 392.823 43.5 391 43.5ZM436.833 58.5H434.358C438.888 53.0088 441.401 45.8873 441.417 38.5C441.417 37.1739 440.934 35.9021 440.074 34.9645C439.215 34.0268 438.049 33.5 436.833 33.5H417.675C416.729 30.5823 414.98 28.055 412.666 26.2647C410.352 24.4744 407.587 23.5087 404.75 23.5H377.25C374.413 23.5087 371.648 24.4744 369.334 26.2647C367.02 28.055 365.271 30.5823 364.325 33.5H345.167C343.951 33.5 342.785 34.0268 341.926 34.9645C341.066 35.9021 340.583 37.1739 340.583 38.5C340.599 45.8873 343.112 53.0088 347.642 58.5H345.167C343.951 58.5 342.785 59.0268 341.926 59.9645C341.066 60.9021 340.583 62.1739 340.583 63.5C340.599 70.8873 343.112 78.0088 347.642 83.5H345.167C343.951 83.5 342.785 84.0268 341.926 84.9645C341.066 85.9021 340.583 87.1739 340.583 88.5C340.595 95.7195 342.993 102.692 347.338 108.138C351.682 113.585 357.681 117.139 364.233 118.15C365.13 121.149 366.87 123.764 369.207 125.622C371.544 127.48 374.358 128.487 377.25 128.5H404.75C407.642 128.487 410.456 127.48 412.793 125.622C415.13 123.764 416.87 121.149 417.767 118.15C424.319 117.139 430.318 113.585 434.662 108.138C439.007 102.692 441.405 95.7195 441.417 88.5C441.417 87.1739 440.934 85.9021 440.074 84.9645C439.215 84.0268 438.049 83.5 436.833 83.5H434.358C438.888 78.0088 441.401 70.8873 441.417 63.5C441.417 62.1739 440.934 60.9021 440.074 59.9645C439.215 59.0268 438.049 58.5 436.833 58.5ZM363.5 107.85C360.333 106.956 357.444 105.154 355.131 102.63C352.818 100.107 351.166 96.9546 350.346 93.5H363.5V107.85ZM363.5 82.85C360.333 81.9558 357.444 80.1536 355.131 77.6303C352.818 75.107 351.166 71.9546 350.346 68.5H363.5V82.85ZM363.5 57.85C360.355 57.002 357.465 55.2793 355.113 52.85C352.886 50.2833 351.307 47.1308 350.529 43.7H363.5V57.85ZM409.333 113.5C409.333 114.826 408.85 116.098 407.991 117.036C407.131 117.973 405.966 118.5 404.75 118.5H377.25C376.034 118.5 374.869 117.973 374.009 117.036C373.15 116.098 372.667 114.826 372.667 113.5V38.5C372.667 37.1739 373.15 35.9021 374.009 34.9645C374.869 34.0268 376.034 33.5 377.25 33.5H404.75C405.966 33.5 407.131 34.0268 407.991 34.9645C408.85 35.9021 409.333 37.1739 409.333 38.5V113.5ZM426.887 102.65C424.535 105.079 421.645 106.802 418.5 107.65V93.5H431.654C430.824 96.9514 429.181 100.106 426.887 102.65ZM426.887 77.65C424.535 80.0793 421.645 81.802 418.5 82.65V68.5H431.654C430.824 71.9514 429.181 75.1059 426.887 77.65ZM426.887 52.65C424.535 55.0793 421.645 56.802 418.5 57.65V43.5H431.654C430.824 46.9514 429.181 50.1059 426.887 52.65ZM391 93.5C389.64 93.5 388.311 93.9399 387.18 94.764C386.05 95.5881 385.169 96.7594 384.648 98.1299C384.128 99.5003 383.992 101.008 384.257 102.463C384.522 103.918 385.177 105.254 386.139 106.303C387.1 107.352 388.325 108.066 389.659 108.356C390.992 108.645 392.375 108.497 393.631 107.929C394.887 107.361 395.961 106.4 396.716 105.167C397.472 103.933 397.875 102.483 397.875 101C397.875 99.0109 397.151 97.1032 395.861 95.6967C394.572 94.2902 392.823 93.5 391 93.5ZM391 68.5C389.64 68.5 388.311 68.9399 387.18 69.764C386.05 70.5881 385.169 71.7594 384.648 73.1299C384.128 74.5003 383.992 76.0083 384.257 77.4632C384.522 78.918 385.177 80.2544 386.139 81.3033C387.1 82.3522 388.325 83.0665 389.659 83.3559C390.992 83.6453 392.375 83.4968 393.631 82.9291C394.887 82.3614 395.961 81.4001 396.716 80.1668C397.472 78.9334 397.875 77.4834 397.875 76C397.875 74.0109 397.151 72.1032 395.861 70.6967C394.572 69.2902 392.823 68.5 391 68.5Z" fill="#58C2B5"/>
<rect x="388" y="127" width="6" height="191" rx="2" fill="#58C2B5"/>
<rect x="29" y="319" width="421" height="5" rx="2.5" fill="#58C2B5"/>
</svg>
