<svg width="190" height="85" viewBox="0 0 190 85" fill="none" xmlns="http://www.w3.org/2000/svg">
<path d="M21.0854 78.9704H15.0883C13.7499 78.9704 12.6721 77.9115 12.6721 76.5965C12.6721 75.2815 13.7499 74.2227 15.0883 74.2227H21.0854C22.4239 74.2227 23.5016 75.2815 23.5016 76.5965C23.5016 77.9115 22.4239 78.9704 21.0854 78.9704Z" fill="#028476"/>
<path d="M86.5838 78.9704H80.2217C78.8833 78.9704 77.8055 77.9115 77.8055 76.5965C77.8055 75.2815 78.8833 74.2227 80.2217 74.2227H86.5838C87.9223 74.2227 89.0001 75.2815 89.0001 76.5965C89.0001 77.9115 87.9223 78.9704 86.5838 78.9704Z" fill="#028476"/>
<path d="M83.9243 78.6807H80.2217C78.8833 78.6807 77.8055 77.6219 77.8055 76.3069C77.8055 74.9918 78.8833 73.933 80.2217 73.933H81.5081V72.8912C81.5081 68.0411 79.4048 64.1302 75.4241 61.5685C72.5212 59.707 68.836 58.7165 64.7684 58.7165H29.5335C26.3177 58.7165 23.5017 60.9537 22.8411 64.0619L20.7204 73.933H21.4505C22.789 73.933 23.8667 74.9918 23.8667 76.3069C23.8667 77.6219 22.789 78.6807 21.4505 78.6807H17.748C17.0179 78.6807 16.3226 78.3562 15.8706 77.8097C15.4187 77.2462 15.2275 76.5289 15.3839 75.8287L18.113 63.0884C19.2429 57.8113 24.0579 53.9688 29.5509 53.9688H64.7858C69.7921 53.9688 74.3985 55.2155 78.0837 57.5893C83.4202 61.022 86.3579 66.4528 86.3579 72.8912V76.3069C86.3405 77.6219 85.2628 78.6807 83.9243 78.6807Z" fill="#028476"/>
<path d="M56.581 78.6808H38.1379C36.7994 78.6808 35.7217 77.622 35.7217 76.307C35.7217 74.9919 36.7994 73.9331 38.1379 73.9331H56.5984C57.9369 73.9331 59.0146 74.9919 59.0146 76.307C59.0146 77.622 57.9195 78.6808 56.581 78.6808Z" fill="#028476"/>
<path d="M64.7685 56.3424C68.4189 56.3424 71.8433 57.0767 74.7463 58.4771L71.3566 44.0462C70.4179 40.5281 67.1674 38.0688 63.4648 38.0688H41.9275C38.6248 38.0688 35.6524 40.0157 34.4008 43.0215L29.3424 56.3424H64.7685Z" fill="#E1F7EF"/>
<path d="M74.7456 60.8513C74.3806 60.8513 74.0155 60.7659 73.6853 60.6122C71.1126 59.3825 68.0185 58.7165 64.7679 58.7165H29.3418C28.5422 58.7165 27.8121 58.3408 27.3601 57.6918C26.9082 57.0599 26.8039 56.2402 27.082 55.5058L32.1404 42.185C32.1578 42.1508 32.1578 42.1337 32.1752 42.0996C33.8091 38.2058 37.6507 35.6782 41.9443 35.6782H63.4816C68.2792 35.6782 72.4859 38.8547 73.7027 43.4146C73.7027 43.4317 73.72 43.4658 73.72 43.4829L77.1097 57.9138C77.3183 58.8019 76.988 59.7412 76.2579 60.3048C75.8234 60.6805 75.2845 60.8513 74.7456 60.8513ZM32.8357 53.9688H64.7853C67.0798 53.9688 69.3048 54.2421 71.4081 54.7715L69.0267 44.6271C68.3488 42.1679 66.0716 40.4601 63.4816 40.4601H41.9269C39.615 40.4601 37.5464 41.8092 36.6425 43.9098L32.8357 53.9688Z" fill="#028476"/>
<path d="M56.5809 68.7073C55.2424 68.7073 54.1647 67.6485 54.1647 66.3335V38.9744C54.1647 37.6594 55.2424 36.6006 56.5809 36.6006C57.9193 36.6006 58.9971 37.6594 58.9971 38.9744V66.3164C58.9971 67.6485 57.9193 68.7073 56.5809 68.7073Z" fill="#028476"/>
<path d="M73.4424 84.9992C68.1581 84.9992 63.8645 80.7809 63.8645 75.5892C63.8645 70.3975 68.1581 66.1792 73.4424 66.1792C78.7268 66.1792 83.0204 70.3975 83.0204 75.5892C83.0204 80.7809 78.7268 84.9992 73.4424 84.9992ZM73.4424 70.9269C70.835 70.9269 68.6969 73.0104 68.6969 75.5892C68.6969 78.168 70.8176 80.2515 73.4424 80.2515C76.0499 80.2515 78.188 78.168 78.188 75.5892C78.188 73.0104 76.0499 70.9269 73.4424 70.9269Z" fill="#005748"/>
<path d="M28.1078 84.9992C22.8235 84.9992 18.5299 80.781 18.5299 75.5892C18.5299 70.3975 22.8235 66.1792 28.1078 66.1792C33.3922 66.1792 37.6857 70.3975 37.6857 75.5892C37.7031 80.781 33.3922 84.9992 28.1078 84.9992ZM28.1078 70.9269C25.483 70.9269 23.3623 73.0104 23.3623 75.5892C23.3623 78.168 25.483 80.2515 28.1078 80.2515C30.7326 80.2515 32.8533 78.168 32.8533 75.5892C32.8533 73.0104 30.7326 70.9269 28.1078 70.9269Z" fill="#005748"/>
<path d="M32.8882 33.1338H2.41621C1.07773 33.1338 0 32.0749 0 30.7599V2.93977C0 1.62476 1.07773 0.565918 2.41621 0.565918H32.8882C34.2267 0.565918 35.3045 1.62476 35.3045 2.93977V30.7599C35.3045 32.0749 34.2267 33.1338 32.8882 33.1338ZM4.83242 28.3861H30.472V5.31362H4.83242V28.3861Z" fill="#005748"/>
<path d="M17.9735 8.67822H13.4713C12.55 8.67822 11.8547 9.25888 11.8547 10.0445V23.6386C11.8547 24.4584 12.7065 25.0219 13.9059 25.0219C15.1227 25.0219 15.9571 24.4584 15.9571 23.6386V19.3862H17.7475C21.3805 19.3862 23.4664 17.4563 23.4664 14.0749V13.9724C23.4664 10.5568 21.5196 8.67822 17.9735 8.67822ZM17.7475 16.0901H15.9571V12.2988H17.7475C18.8252 12.2988 19.3467 12.8794 19.3467 14.0749V14.314C19.3467 15.5095 18.8252 16.0901 17.7475 16.0901Z" fill="#005748"/>
<path d="M17.6435 53.1145C16.305 53.1145 15.2273 52.0557 15.2273 50.7407V31.0667C15.2273 29.7517 16.305 28.6929 17.6435 28.6929C18.982 28.6929 20.0597 29.7517 20.0597 31.0667V50.7407C20.0771 52.0557 18.982 53.1145 17.6435 53.1145Z" fill="#005748"/>
<path d="M47.2541 8.63823L47.2371 29.0019L50.061 29.0042L60.4243 14.0782L60.6132 14.0784L60.6007 29.013L63.6732 29.0156L63.6902 8.65197L60.8465 8.64959L50.4732 23.5955L50.2842 23.5953L50.2967 8.64077L47.2541 8.63823ZM76.4905 25.3473L71.6678 13.7496L67.9292 13.7464L67.9164 29.0191L70.8298 29.0216L70.8391 17.9151L75.3838 29.0254L77.5911 29.0272L82.2339 17.9644L82.2247 29.0311L85.1181 29.0335L85.1309 13.7608L81.432 13.7577L76.4905 25.3473ZM89.0805 29.0368L91.9739 29.0393L91.9846 16.3319L98.6366 16.3374L98.6259 29.0448L101.539 29.0473L101.552 13.7745L89.0933 13.7641L89.0805 29.0368ZM112.096 29.3643C115.427 29.3671 117.785 27.7285 118.463 25.2432L115.65 24.7338C115.112 26.1751 113.818 26.9098 112.128 26.9084C109.583 26.9063 107.874 25.2543 107.797 22.311L118.655 22.3201L118.656 21.2661C118.66 15.7476 115.361 13.5872 111.901 13.5843C107.645 13.5808 104.838 16.8199 104.834 21.5131C104.83 26.256 107.592 29.3606 112.096 29.3643ZM107.809 20.0837C107.93 17.9162 109.502 16.0383 111.918 16.0403C114.225 16.0422 115.735 17.7537 115.743 20.0904L107.809 20.0837ZM121.943 34.7916L124.916 34.7941L124.923 26.6904L125.102 26.6905C125.638 27.6654 126.73 29.3666 129.514 29.3689C133.213 29.372 135.9 26.4112 135.904 21.4695C135.908 16.5178 133.186 13.6021 129.498 13.599C126.664 13.5967 125.638 15.3259 125.11 16.2701L124.862 16.2699L124.864 13.794L121.96 13.7916L121.943 34.7916ZM124.867 21.4304C124.87 18.2386 126.264 16.1219 128.859 16.1241C131.554 16.1263 132.904 18.4044 132.901 21.4371C132.899 24.4996 131.505 26.8351 128.85 26.8329C126.295 26.8307 124.865 24.642 124.867 21.4304ZM142.146 24.915L142.155 13.8085L139.242 13.806L139.229 29.0788L142.46 29.0815L149.171 17.9706L149.162 29.0871L152.075 29.0895L152.088 13.8168L148.887 13.8141L142.146 24.915ZM165.181 29.1005L167.975 29.1028L167.987 13.8301L161.534 13.8247C158.014 13.8217 155.865 15.6395 155.863 18.5131C155.861 20.5216 156.914 22.0041 158.733 22.6917L155.158 29.0921L158.2 29.0946L161.536 23.1216L165.186 23.1246L165.181 29.1005ZM165.188 20.7184L161.33 20.7151C159.709 20.7138 158.765 19.8579 158.776 18.5553C158.767 17.2428 159.792 16.3587 161.532 16.3602L165.191 16.3633L165.188 20.7184Z" fill="#00221C"/>
<path d="M104.156 45.6364H88.446V66H91.5085V48.2614H101.094V66H104.156V45.6364ZM108.616 71.7273H111.589V63.6236H111.768C112.305 64.598 113.398 66.2983 116.183 66.2983C119.881 66.2983 122.566 63.3352 122.566 58.3935C122.566 53.4418 119.842 50.5284 116.153 50.5284C113.319 50.5284 112.295 52.2585 111.768 53.2031H111.519V50.7273H108.616V71.7273ZM111.529 58.3636C111.529 55.1719 112.921 53.054 115.516 53.054C118.211 53.054 119.563 55.331 119.563 58.3636C119.563 61.4261 118.171 63.7628 115.516 63.7628C112.961 63.7628 111.529 61.5753 111.529 58.3636ZM130.342 66.3381C132.867 66.3381 134.289 65.0554 134.856 63.9119H134.975V66H137.879V55.858C137.879 51.4134 134.379 50.5284 131.952 50.5284C129.188 50.5284 126.643 51.642 125.648 54.4261L128.442 55.0625C128.88 53.9787 129.994 52.9347 131.992 52.9347C133.911 52.9347 134.896 53.9389 134.896 55.669V55.7386C134.896 56.8224 133.782 56.8026 131.038 57.1207C128.144 57.4588 125.181 58.2145 125.181 61.6847C125.181 64.6875 127.438 66.3381 130.342 66.3381ZM130.988 63.9517C129.308 63.9517 128.094 63.196 128.094 61.7244C128.094 60.1335 129.506 59.5668 131.227 59.3381C132.191 59.2088 134.478 58.9503 134.906 58.5227V60.4915C134.906 62.3011 133.464 63.9517 130.988 63.9517ZM141.838 66H149.137C152.478 66 154.436 64.3097 154.436 61.8835C154.436 59.6165 152.696 58.2244 150.658 57.9858C152.537 57.6278 153.78 56.5938 153.78 54.804C153.78 52.2983 151.613 50.7273 148.172 50.7273H141.838V66ZM144.632 63.5142V59.2685H149.137C150.608 59.2685 151.493 60.1335 151.493 61.5554C151.493 62.7685 150.608 63.5142 149.137 63.5142H144.632ZM144.632 57.0909V53.2429H148.172C149.863 53.2429 150.887 53.9489 150.887 55.1222C150.887 56.3452 149.873 57.0909 148.202 57.0909H144.632ZM160.611 61.8338V50.7273H157.698V66H160.929L167.631 54.8835V66H170.544V50.7273H167.343L160.611 61.8338ZM173.338 66H174.293C177.624 66 178.847 63.5341 179.086 58.483L179.324 53.2926H184.316V66H187.229V50.7273H176.57L176.301 57.4886C176.113 62.2017 175.576 63.4247 173.875 63.4247H173.328L173.338 66Z" fill="#00221C"/>
</svg>
