<svg width="84" height="34" viewBox="0 0 84 34" fill="none" xmlns="http://www.w3.org/2000/svg">
<g clip-path="url(#clip0_705_97)">
<path d="M8.05513 31.1561H5.76411C5.25278 31.1561 4.84106 30.7564 4.84106 30.2602C4.84106 29.7639 5.25278 29.3643 5.76411 29.3643H8.05513C8.56646 29.3643 8.97818 29.7639 8.97818 30.2602C8.97818 30.7564 8.56646 31.1561 8.05513 31.1561Z" fill="#028476"/>
<path d="M33.077 31.1561H30.6466C30.1352 31.1561 29.7235 30.7564 29.7235 30.2602C29.7235 29.7639 30.1352 29.3643 30.6466 29.3643H33.077C33.5884 29.3643 34.0001 29.7639 34.0001 30.2602C34.0001 30.7564 33.5884 31.1561 33.077 31.1561Z" fill="#028476"/>
<path d="M32.061 31.0466H30.6466C30.1352 31.0466 29.7235 30.647 29.7235 30.1507C29.7235 29.6544 30.1352 29.2548 30.6466 29.2548H31.138V28.8616C31.138 27.0312 30.3344 25.5552 28.8137 24.5884C27.7048 23.8858 26.2969 23.512 24.743 23.512H11.2825C10.054 23.512 8.97818 24.3563 8.72584 25.5294L7.91568 29.2548H8.19459C8.70592 29.2548 9.11764 29.6544 9.11764 30.1507C9.11764 30.647 8.70592 31.0466 8.19459 31.0466H6.78014C6.50123 31.0466 6.23561 30.9241 6.06295 30.7179C5.89029 30.5052 5.81725 30.2345 5.87701 29.9702L6.91959 25.162C7.35123 23.1704 9.19068 21.7202 11.2891 21.7202H24.7497C26.6622 21.7202 28.4219 22.1907 29.8298 23.0866C31.8684 24.3821 32.9907 26.4317 32.9907 28.8616V30.1507C32.9841 30.647 32.5723 31.0466 32.061 31.0466Z" fill="#028476"/>
<path d="M21.6152 31.0467H14.5695C14.0582 31.0467 13.6465 30.6471 13.6465 30.1508C13.6465 29.6545 14.0582 29.2549 14.5695 29.2549H21.6219C22.1332 29.2549 22.5449 29.6545 22.5449 30.1508C22.5449 30.6471 22.1266 31.0467 21.6152 31.0467Z" fill="#028476"/>
<path d="M24.7431 22.6162C26.1376 22.6162 27.4458 22.8934 28.5548 23.4219L27.2599 17.9756C26.9013 16.6479 25.6595 15.7197 24.245 15.7197H16.0173C14.7556 15.7197 13.62 16.4545 13.1419 17.5889L11.2095 22.6162H24.7431Z" fill="#E1F7EF"/>
<path d="M28.5546 24.3178C28.4151 24.3178 28.2756 24.2855 28.1495 24.2275C27.1667 23.7635 25.9846 23.5121 24.7428 23.5121H11.2092C10.9038 23.5121 10.6249 23.3703 10.4522 23.1254C10.2796 22.8869 10.2397 22.5775 10.346 22.3004L12.2784 17.273C12.285 17.2602 12.285 17.2537 12.2917 17.2408C12.9159 15.7713 14.3835 14.8174 16.0237 14.8174H24.2514C26.0842 14.8174 27.6913 16.0162 28.1561 17.7371C28.1561 17.7436 28.1628 17.7564 28.1628 17.7629L29.4577 23.2092C29.5374 23.5443 29.4112 23.8988 29.1323 24.1115C28.9663 24.2533 28.7604 24.3178 28.5546 24.3178ZM12.544 21.7203H24.7495C25.626 21.7203 26.476 21.8234 27.2796 22.0232L26.3698 18.1947C26.1108 17.2666 25.2409 16.6221 24.2514 16.6221H16.0171C15.1339 16.6221 14.3436 17.1312 13.9983 17.924L12.544 21.7203Z" fill="#028476"/>
<path d="M21.6152 27.2827C21.1039 27.2827 20.6921 26.8831 20.6921 26.3868V16.0614C20.6921 15.5651 21.1039 15.1655 21.6152 15.1655C22.1265 15.1655 22.5382 15.5651 22.5382 16.0614V26.3804C22.5382 26.8831 22.1265 27.2827 21.6152 27.2827Z" fill="#028476"/>
<path d="M28.0567 33.4314C26.0379 33.4314 24.3977 31.8394 24.3977 29.88C24.3977 27.9206 26.0379 26.3286 28.0567 26.3286C30.0755 26.3286 31.7157 27.9206 31.7157 29.88C31.7157 31.8394 30.0755 33.4314 28.0567 33.4314ZM28.0567 28.1204C27.0606 28.1204 26.2438 28.9067 26.2438 29.88C26.2438 30.8532 27.054 31.6396 28.0567 31.6396C29.0528 31.6396 29.8696 30.8532 29.8696 29.88C29.8696 28.9067 29.0528 28.1204 28.0567 28.1204Z" fill="#005748"/>
<path d="M10.7378 33.4314C8.71909 33.4314 7.07886 31.8394 7.07886 29.88C7.07886 27.9206 8.71909 26.3286 10.7378 26.3286C12.7566 26.3286 14.3968 27.9206 14.3968 29.88C14.4035 31.8394 12.7566 33.4314 10.7378 33.4314ZM10.7378 28.1204C9.73511 28.1204 8.92495 28.9067 8.92495 29.88C8.92495 30.8532 9.73511 31.6396 10.7378 31.6396C11.7406 31.6396 12.5507 30.8532 12.5507 29.88C12.5507 28.9067 11.7406 28.1204 10.7378 28.1204Z" fill="#005748"/>
<path d="M12.5641 13.8571H0.923047C0.411719 13.8571 0 13.4575 0 12.9612V2.46182C0 1.96553 0.411719 1.56592 0.923047 1.56592H12.5641C13.0754 1.56592 13.4871 1.96553 13.4871 2.46182V12.9612C13.4871 13.4575 13.0754 13.8571 12.5641 13.8571ZM1.84609 12.0653H11.641V3.35771H1.84609V12.0653Z" fill="#005748"/>
<path d="M6.86631 4.62744H5.14639C4.79443 4.62744 4.52881 4.84658 4.52881 5.14307V10.2735C4.52881 10.5829 4.8542 10.7956 5.3124 10.7956C5.77725 10.7956 6.096 10.5829 6.096 10.2735V8.66865H6.77998C8.16787 8.66865 8.96474 7.94033 8.96474 6.66416V6.62549C8.96474 5.33643 8.221 4.62744 6.86631 4.62744ZM6.77998 7.42471H6.096V5.99385H6.77998C7.1917 5.99385 7.39092 6.21299 7.39092 6.66416V6.7544C7.39092 7.20557 7.1917 7.42471 6.77998 7.42471Z" fill="#005748"/>
<path d="M6.74018 21.398C6.22886 21.398 5.81714 20.9983 5.81714 20.5021V13.0771C5.81714 12.5808 6.22886 12.1812 6.74018 12.1812C7.25151 12.1812 7.66323 12.5808 7.66323 13.0771V20.5021C7.66987 20.9983 7.25151 21.398 6.74018 21.398Z" fill="#005748"/>
</g>
<path d="M17.9699 3.27353L17.9626 12.0008L19.1728 12.0018L23.6142 5.60495L23.6952 5.60502L23.6898 12.0056L25.0066 12.0067L25.0139 3.27942L23.7951 3.2784L19.3494 9.68377L19.2685 9.68371L19.2738 3.27462L17.9699 3.27353ZM30.4997 10.4346L28.4329 5.46409L26.8306 5.46275L26.8251 12.0082L28.0737 12.0093L28.0777 7.24931L30.0254 12.0109L30.9714 12.0117L32.9612 7.27044L32.9572 12.0133L34.1973 12.0144L34.2028 5.46892L32.6175 5.46759L30.4997 10.4346ZM35.8954 12.0158L37.1355 12.0168L37.1401 6.57081L39.9909 6.57319L39.9864 12.0192L41.2349 12.0203L41.2404 5.4748L35.9009 5.47034L35.8954 12.0158ZM45.7593 12.1561C47.1869 12.1573 48.1974 11.4551 48.4881 10.39L47.2823 10.1716C47.0517 10.7893 46.4974 11.1042 45.773 11.1036C44.6821 11.1027 43.9497 10.3947 43.9167 9.13329L48.5701 9.13718L48.5705 8.68548C48.5724 6.32042 47.1584 5.39452 45.6755 5.39328C43.8516 5.39176 42.6488 6.77996 42.6471 8.79132C42.6454 10.824 43.8289 12.1545 45.7593 12.1561ZM43.9217 8.17875C43.9737 7.24981 44.6476 6.44498 45.6831 6.44585C46.6718 6.44667 47.3189 7.18017 47.3223 8.18159L43.9217 8.17875ZM49.9793 14.4821L51.2535 14.4832L51.2564 11.0102L51.3331 11.0102C51.5628 11.428 52.031 12.1571 53.2242 12.1581C54.8094 12.1594 55.961 10.8905 55.9628 8.77262C55.9646 6.65046 54.798 5.40091 53.217 5.39959C52.0025 5.39857 51.563 6.13968 51.3368 6.54432L51.2303 6.54423L51.2312 5.48315L49.9868 5.48211L49.9793 14.4821ZM51.2327 8.75588C51.2338 7.38799 51.8312 6.48082 52.9434 6.48175C54.0982 6.48271 54.677 7.45905 54.6759 8.75876C54.6748 10.0713 54.0773 11.0722 52.9396 11.0712C51.8444 11.0703 51.2315 10.1323 51.2327 8.75588ZM58.6377 10.2493L58.6417 5.48935L57.3931 5.48831L57.3876 12.0338L58.7726 12.0349L61.6487 7.27311L61.6447 12.0373L62.8933 12.0384L62.8988 5.49291L61.5266 5.49176L58.6377 10.2493ZM68.5098 12.0431L69.7072 12.0441L69.7127 5.49861L66.9471 5.49629C65.4385 5.49503 64.5174 6.27409 64.5164 7.50563C64.5157 8.36642 64.9669 9.00174 65.7465 9.29643L64.2143 12.0395L65.5183 12.0406L66.948 9.48067L68.5119 9.48198L68.5098 12.0431ZM68.5128 8.45073L66.8594 8.44935C66.1648 8.44877 65.7602 8.08195 65.765 7.52372C65.7612 6.96121 66.2004 6.58232 66.9462 6.58294L68.5143 6.58425L68.5128 8.45073Z" fill="#00221C"/>
<path d="M41.7812 19.2727H35.0483V28H36.3608V20.3977H40.4688V28H41.7812V19.2727ZM43.6925 30.4545H44.9666V26.9815H45.0433C45.2734 27.3991 45.7422 28.1278 46.9354 28.1278C48.5206 28.1278 49.6712 26.858 49.6712 24.7401C49.6712 22.6179 48.5036 21.3693 46.9226 21.3693C45.7081 21.3693 45.2692 22.1108 45.0433 22.5156H44.9368V21.4545H43.6925V30.4545ZM44.9411 24.7273C44.9411 23.3594 45.5376 22.4517 46.6499 22.4517C47.8047 22.4517 48.3842 23.4276 48.3842 24.7273C48.3842 26.0398 47.7876 27.0412 46.6499 27.0412C45.5547 27.0412 44.9411 26.1037 44.9411 24.7273ZM53.0036 28.1449C54.0859 28.1449 54.6953 27.5952 54.9382 27.1051H54.9893V28H56.2337V23.6534C56.2337 21.7486 54.7337 21.3693 53.6939 21.3693C52.5092 21.3693 51.4183 21.8466 50.9922 23.0398L52.1896 23.3125C52.3771 22.848 52.8544 22.4006 53.7109 22.4006C54.5334 22.4006 54.9553 22.831 54.9553 23.5724V23.6023C54.9553 24.0668 54.478 24.0582 53.3018 24.1946C52.0618 24.3395 50.7919 24.6634 50.7919 26.1506C50.7919 27.4375 51.7592 28.1449 53.0036 28.1449ZM53.2805 27.1222C52.5604 27.1222 52.0405 26.7983 52.0405 26.1676C52.0405 25.4858 52.6456 25.2429 53.3828 25.1449C53.7962 25.0895 54.7763 24.9787 54.9595 24.7955V25.6392C54.9595 26.4148 54.3416 27.1222 53.2805 27.1222ZM57.9308 28H61.0586C62.4904 28 63.3299 27.2756 63.3299 26.2358C63.3299 25.2642 62.5842 24.6676 61.7106 24.5653C62.516 24.4119 63.0487 23.9688 63.0487 23.2017C63.0487 22.1278 62.1197 21.4545 60.6452 21.4545H57.9308V28ZM59.1282 26.9347V25.1151H61.0586C61.6893 25.1151 62.0685 25.4858 62.0685 26.0952C62.0685 26.6151 61.6893 26.9347 61.0586 26.9347H59.1282ZM59.1282 24.1818V22.5327H60.6452C61.3697 22.5327 61.8086 22.8352 61.8086 23.3381C61.8086 23.8622 61.3739 24.1818 60.658 24.1818H59.1282ZM65.9762 26.2145V21.4545H64.7276V28H66.1126L68.9847 23.2358V28H70.2333V21.4545H68.8612L65.9762 26.2145ZM71.4308 28H71.8398C73.2674 28 73.7915 26.9432 73.8938 24.7784L73.9961 22.554H76.1353V28H77.3839V21.4545H72.8157L72.7006 24.3523C72.6197 26.3722 72.3896 26.8963 71.6609 26.8963H71.4265L71.4308 28Z" fill="#00221C"/>
<defs>
<clipPath id="clip0_705_97">
<rect width="34" height="33" fill="white" transform="translate(0 0.998535)"/>
</clipPath>
</defs>
</svg>
