<svg width="193" height="85" viewBox="0 0 193 85" fill="none" xmlns="http://www.w3.org/2000/svg">
<path d="M21.0854 78.404H15.0883C13.7499 78.404 12.6721 77.3451 12.6721 76.0301C12.6721 74.7151 13.7499 73.6562 15.0883 73.6562H21.0854C22.4239 73.6562 23.5016 74.7151 23.5016 76.0301C23.5016 77.3451 22.4239 78.404 21.0854 78.404Z" fill="#1EA799"/>
<path d="M86.5838 78.404H80.2217C78.8833 78.404 77.8055 77.3451 77.8055 76.0301C77.8055 74.7151 78.8833 73.6562 80.2217 73.6562H86.5838C87.9223 73.6562 89.0001 74.7151 89.0001 76.0301C89.0001 77.3451 87.9223 78.404 86.5838 78.404Z" fill="#1EA799"/>
<path d="M83.9243 78.1143H80.2217C78.8833 78.1143 77.8055 77.0555 77.8055 75.7405C77.8055 74.4254 78.8833 73.3666 80.2217 73.3666H81.5081V72.3248C81.5081 67.4747 79.4048 63.5638 75.4241 61.0021C72.5212 59.1406 68.836 58.15 64.7684 58.15H29.5335C26.3177 58.15 23.5017 60.3873 22.8411 63.4955L20.7204 73.3666H21.4505C22.789 73.3666 23.8667 74.4254 23.8667 75.7405C23.8667 77.0555 22.789 78.1143 21.4505 78.1143H17.748C17.0179 78.1143 16.3226 77.7898 15.8706 77.2433C15.4187 76.6798 15.2275 75.9625 15.3839 75.2623L18.113 62.522C19.2429 57.2449 24.0579 53.4023 29.5509 53.4023H64.7858C69.7921 53.4023 74.3985 54.649 78.0837 57.0229C83.4202 60.4556 86.3579 65.8864 86.3579 72.3248V75.7405C86.3405 77.0555 85.2628 78.1143 83.9243 78.1143Z" fill="#1EA799"/>
<path d="M56.581 78.1144H38.1379C36.7994 78.1144 35.7217 77.0556 35.7217 75.7405C35.7217 74.4255 36.7994 73.3667 38.1379 73.3667H56.5984C57.9369 73.3667 59.0146 74.4255 59.0146 75.7405C59.0146 77.0556 57.9195 78.1144 56.581 78.1144Z" fill="#1EA799"/>
<path d="M64.7685 55.7765C68.4189 55.7765 71.8433 56.5108 74.7463 57.9112L71.3566 43.4803C70.4179 39.9622 67.1674 37.5029 63.4648 37.5029H41.9275C38.6248 37.5029 35.6524 39.4498 34.4008 42.4556L29.3424 55.7765H64.7685Z" fill="#E1F7EF"/>
<path d="M74.7456 60.2853C74.3806 60.2853 74.0155 60.1999 73.6853 60.0462C71.1126 58.8166 68.0185 58.1506 64.7679 58.1506H29.3418C28.5422 58.1506 27.8121 57.7749 27.3601 57.1259C26.9082 56.494 26.8039 55.6743 27.082 54.9399L32.1404 41.619C32.1578 41.5849 32.1578 41.5678 32.1752 41.5336C33.8091 37.6399 37.6507 35.1123 41.9443 35.1123H63.4816C68.2792 35.1123 72.4859 38.2888 73.7027 42.8487C73.7027 42.8657 73.72 42.8999 73.72 42.917L77.1097 57.3479C77.3183 58.236 76.988 59.1753 76.2579 59.7388C75.8234 60.1146 75.2845 60.2853 74.7456 60.2853ZM32.8357 53.4029H64.7853C67.0798 53.4029 69.3048 53.6761 71.4081 54.2056L69.0267 44.0612C68.3488 41.602 66.0716 39.8942 63.4816 39.8942H41.9269C39.615 39.8942 37.5464 41.2433 36.6425 43.3439L32.8357 53.4029Z" fill="#1EA799"/>
<path d="M56.5809 68.1414C55.2424 68.1414 54.1647 67.0826 54.1647 65.7676V38.4085C54.1647 37.0935 55.2424 36.0347 56.5809 36.0347C57.9193 36.0347 58.9971 37.0935 58.9971 38.4085V65.7505C58.9971 67.0826 57.9193 68.1414 56.5809 68.1414Z" fill="#1EA799"/>
<path d="M73.4424 84.4333C68.1581 84.4333 63.8645 80.215 63.8645 75.0233C63.8645 69.8316 68.1581 65.6133 73.4424 65.6133C78.7268 65.6133 83.0204 69.8316 83.0204 75.0233C83.0204 80.215 78.7268 84.4333 73.4424 84.4333ZM73.4424 70.361C70.835 70.361 68.6969 72.4445 68.6969 75.0233C68.6969 77.6021 70.8176 79.6856 73.4424 79.6856C76.0499 79.6856 78.188 77.6021 78.188 75.0233C78.188 72.4445 76.0499 70.361 73.4424 70.361Z" fill="#1A8D82"/>
<path d="M37.1857 75.0233L37.1857 75.025C37.2022 79.9295 33.126 83.9333 28.1078 83.9333C23.0912 83.9333 19.0299 79.9306 19.0299 75.0233C19.0299 70.116 23.0912 66.1133 28.1078 66.1133C33.1244 66.1133 37.1857 70.116 37.1857 75.0233ZM28.1078 69.861C25.2153 69.861 22.8623 72.1601 22.8623 75.0233C22.8623 77.8865 25.2153 80.1856 28.1078 80.1856C31.0004 80.1856 33.3533 77.8865 33.3533 75.0233C33.3533 72.1601 31.0004 69.861 28.1078 69.861Z" fill="#1A8D82" stroke="#1A8D82"/>
<path d="M4.33242 27.8202V28.3202H4.83242H30.472H30.972V27.8202V4.7477V4.2477H30.472H4.83242H4.33242V4.7477V27.8202ZM32.8882 32.0679H2.41621C1.3455 32.0679 0.5 31.2246 0.5 30.194V2.37385C0.5 1.34328 1.3455 0.5 2.41621 0.5H32.8882C33.959 0.5 34.8045 1.34328 34.8045 2.37385V30.194C34.8045 31.2246 33.959 32.0679 32.8882 32.0679Z" fill="#17B4A4" stroke="#17B4A4"/>
<path d="M15.9571 18.3203H15.4571V18.8203V23.0727C15.4571 23.2903 15.3542 23.4913 15.1081 23.6573C14.8513 23.8306 14.4438 23.956 13.9059 23.956C13.3779 23.956 12.9694 23.8311 12.709 23.6565C12.4583 23.4883 12.3547 23.2865 12.3547 23.0727V9.47855C12.3547 9.04617 12.7422 8.6123 13.4713 8.6123H17.9735C19.6623 8.6123 20.894 9.05886 21.7027 9.8385C22.5085 10.6154 22.9664 11.7928 22.9664 13.4065V13.509C22.9664 15.0946 22.4804 16.2765 21.6293 17.0661C20.7727 17.8608 19.4795 18.3203 17.7475 18.3203H15.9571ZM15.4571 15.5242V16.0242H15.9571H17.7475C18.3737 16.0242 18.9319 15.8535 19.3229 15.4189C19.7045 14.9948 19.8467 14.407 19.8467 13.7481V13.509C19.8467 12.85 19.7045 12.2622 19.3229 11.8382C18.9319 11.4036 18.3737 11.2329 17.7475 11.2329H15.9571H15.4571V11.7329V15.5242Z" fill="#1A8D82" stroke="#1A8D82"/>
<path d="M19.5596 50.1747H19.5595L19.5596 50.1813C19.5731 51.2008 18.7203 52.0486 17.6434 52.0486C16.5727 52.0486 15.7272 51.2053 15.7272 50.1747V30.5008C15.7272 29.4702 16.5727 28.627 17.6434 28.627C18.7141 28.627 19.5596 29.4702 19.5596 30.5008V50.1747Z" fill="#17B4A4" stroke="#17B4A4"/>
<path d="M47.2599 6.63823L47.2428 27.0019L50.0667 27.0042L60.43 12.0782L60.619 12.0784L60.6065 27.013L63.6789 27.0156L63.6959 6.65197L60.8522 6.64959L50.4789 21.5955L50.29 21.5953L50.3025 6.64077L47.2599 6.63823ZM76.4963 23.3473L71.6736 11.7496L67.9349 11.7464L67.9222 27.0191L70.8355 27.0216L70.8448 15.9151L75.3895 27.0254L77.5969 27.0272L82.2397 15.9644L82.2304 27.0311L85.1239 27.0335L85.1366 11.7608L81.4378 11.7577L76.4963 23.3473ZM89.0862 27.0368L91.9797 27.0393L91.9903 14.3319L98.6423 14.3374L98.6317 27.0448L101.545 27.0473L101.558 11.7745L89.099 11.7641L89.0862 27.0368ZM112.102 27.3643C115.433 27.3671 117.791 25.7285 118.469 23.2432L115.656 22.7338C115.117 24.1751 113.824 24.9098 112.134 24.9084C109.588 24.9063 107.88 23.2543 107.802 20.311L118.66 20.3201L118.661 19.2661C118.666 13.7476 115.367 11.5872 111.906 11.5843C107.651 11.5808 104.844 14.8199 104.84 19.5131C104.836 24.256 107.598 27.3606 112.102 27.3643ZM107.814 18.0837C107.935 15.9162 109.508 14.0383 111.924 14.0403C114.231 14.0422 115.741 15.7537 115.749 18.0904L107.814 18.0837ZM121.949 32.7916L124.922 32.7941L124.928 24.6904L125.107 24.6905C125.643 25.6654 126.736 27.3666 129.52 27.3689C133.219 27.372 135.906 24.4112 135.91 19.4695C135.914 14.5178 133.192 11.6021 129.503 11.599C126.669 11.5967 125.644 13.3259 125.116 14.2701L124.868 14.2699L124.87 11.794L121.966 11.7916L121.949 32.7916ZM124.873 19.4304C124.876 16.2386 126.27 14.1219 128.865 14.1241C131.559 14.1263 132.91 16.4044 132.907 19.4371C132.905 22.4996 131.511 24.8351 128.856 24.8329C126.3 24.8307 124.87 22.642 124.873 19.4304ZM142.151 22.915L142.161 11.8085L139.247 11.806L139.235 27.0788L142.466 27.0815L149.177 15.9706L149.168 27.0871L152.081 27.0895L152.094 11.8168L148.892 11.8141L142.151 22.915ZM165.186 27.1005L167.98 27.1028L167.993 11.8301L161.54 11.8247C158.02 11.8217 155.871 13.6395 155.868 16.5131C155.867 18.5216 156.92 20.0041 158.739 20.6917L155.164 27.0921L158.206 27.0946L161.542 21.1216L165.191 21.1246L165.186 27.1005ZM165.193 18.7184L161.335 18.7151C159.715 18.7138 158.771 17.8579 158.782 16.5553C158.773 15.2428 159.798 14.3587 161.538 14.3602L165.197 14.3633L165.193 18.7184Z" fill="#005C4C"/>
<path d="M107.156 45.6364H91.446V66H94.5085V48.2614H104.094V66H107.156V45.6364ZM111.616 71.7273H114.589V63.6236H114.768C115.305 64.598 116.398 66.2983 119.183 66.2983C122.881 66.2983 125.566 63.3352 125.566 58.3935C125.566 53.4418 122.842 50.5284 119.153 50.5284C116.319 50.5284 115.295 52.2585 114.768 53.2031H114.519V50.7273H111.616V71.7273ZM114.529 58.3636C114.529 55.1719 115.921 53.054 118.516 53.054C121.211 53.054 122.563 55.331 122.563 58.3636C122.563 61.4261 121.171 63.7628 118.516 63.7628C115.961 63.7628 114.529 61.5753 114.529 58.3636ZM133.342 66.3381C135.867 66.3381 137.289 65.0554 137.856 63.9119H137.975V66H140.879V55.858C140.879 51.4134 137.379 50.5284 134.952 50.5284C132.188 50.5284 129.643 51.642 128.648 54.4261L131.442 55.0625C131.88 53.9787 132.994 52.9347 134.992 52.9347C136.911 52.9347 137.896 53.9389 137.896 55.669V55.7386C137.896 56.8224 136.782 56.8026 134.038 57.1207C131.144 57.4588 128.181 58.2145 128.181 61.6847C128.181 64.6875 130.438 66.3381 133.342 66.3381ZM133.988 63.9517C132.308 63.9517 131.094 63.196 131.094 61.7244C131.094 60.1335 132.506 59.5668 134.227 59.3381C135.191 59.2088 137.478 58.9503 137.906 58.5227V60.4915C137.906 62.3011 136.464 63.9517 133.988 63.9517ZM144.838 66H152.137C155.478 66 157.436 64.3097 157.436 61.8835C157.436 59.6165 155.696 58.2244 153.658 57.9858C155.537 57.6278 156.78 56.5938 156.78 54.804C156.78 52.2983 154.613 50.7273 151.172 50.7273H144.838V66ZM147.632 63.5142V59.2685H152.137C153.608 59.2685 154.493 60.1335 154.493 61.5554C154.493 62.7685 153.608 63.5142 152.137 63.5142H147.632ZM147.632 57.0909V53.2429H151.172C152.863 53.2429 153.887 53.9489 153.887 55.1222C153.887 56.3452 152.873 57.0909 151.202 57.0909H147.632ZM163.611 61.8338V50.7273H160.698V66H163.929L170.631 54.8835V66H173.544V50.7273H170.343L163.611 61.8338ZM176.338 66H177.293C180.624 66 181.847 63.5341 182.086 58.483L182.324 53.2926H187.316V66H190.229V50.7273H179.57L179.301 57.4886C179.113 62.2017 178.576 63.4247 176.875 63.4247H176.328L176.338 66Z" fill="#005C4C"/>
</svg>
